<svg width="32" height="32" viewBox="0 0 32 32" fill="none" xmlns="http://www.w3.org/2000/svg">
<path d="M19.2 10.2857H18.2857C17.4021 10.2857 16.6857 11.0021 16.6857 11.8857V13.0286H19.2V15.3143H16.6857V22.8571H14.4V15.3143H12.8V13.0286H14.4V11.8857C14.4 9.73969 16.1397 8 18.2857 8H19.2V10.2857Z" fill="white"/>
<path fill-rule="evenodd" clip-rule="evenodd" d="M24.6857 0C28.7253 0 32 3.27472 32 7.31429V24.6857C32 28.5989 28.927 31.7941 25.0625 31.9902L24.6857 32H7.31429L6.9375 31.9902C3.19784 31.8004 0.199592 28.8022 0.00982143 25.0625L0 24.6857V7.31429C0 3.27472 3.27472 2.20888e-08 7.31429 0H24.6857ZM7.31429 1.82857C4.28461 1.82857 1.82857 4.28461 1.82857 7.31429V24.6857C1.82857 27.7154 4.28461 30.1714 7.31429 30.1714H24.6857C27.7154 30.1714 30.1714 27.7154 30.1714 24.6857V7.31429C30.1714 4.28461 27.7154 1.82857 24.6857 1.82857H7.31429Z" fill="white"/>
</svg>
