<svg width="32" height="32" viewBox="0 0 32 32" fill="none" xmlns="http://www.w3.org/2000/svg">
<path fill-rule="evenodd" clip-rule="evenodd" d="M16 9.14286C19.7871 9.14286 22.8571 12.2129 22.8571 16C22.8571 19.7871 19.7871 22.8571 16 22.8571C12.2129 22.8571 9.14286 19.7871 9.14286 16C9.14286 12.2129 12.2129 9.14286 16 9.14286ZM16 10.9714C13.2228 10.9714 10.9714 13.2228 10.9714 16C10.9714 18.7772 13.2228 21.0286 16 21.0286C18.7772 21.0286 21.0286 18.7772 21.0286 16C21.0286 13.2228 18.7772 10.9714 16 10.9714Z" fill="white"/>
<path fill-rule="evenodd" clip-rule="evenodd" d="M24.2286 5.48571C25.4909 5.48571 26.5143 6.50906 26.5143 7.77143C26.5143 9.03379 25.4909 10.0571 24.2286 10.0571C22.9662 10.0571 21.9429 9.03379 21.9429 7.77143C21.9429 6.50906 22.9662 5.48571 24.2286 5.48571ZM24.2286 6.4C23.4712 6.4 22.8571 7.01401 22.8571 7.77143C22.8571 8.52885 23.4712 9.14286 24.2286 9.14286C24.986 9.14286 25.6 8.52885 25.6 7.77143C25.6 7.01401 24.986 6.4 24.2286 6.4Z" fill="white"/>
<path fill-rule="evenodd" clip-rule="evenodd" d="M24.6857 0C28.7253 0 32 3.27472 32 7.31429V24.6857C32 28.5989 28.927 31.7941 25.0625 31.9902L24.6857 32H7.31429L6.9375 31.9902C3.19784 31.8004 0.199592 28.8022 0.00982143 25.0625L0 24.6857V7.31429C0 3.27472 3.27472 2.20888e-08 7.31429 0H24.6857ZM7.31429 1.82857C4.28461 1.82857 1.82857 4.28461 1.82857 7.31429V24.6857C1.82857 27.7154 4.28461 30.1714 7.31429 30.1714H24.6857C27.7154 30.1714 30.1714 27.7154 30.1714 24.6857V7.31429C30.1714 4.28461 27.7154 1.82857 24.6857 1.82857H7.31429Z" fill="white"/>
</svg>
