<svg width="32" height="32" viewBox="0 0 32 32" fill="none" xmlns="http://www.w3.org/2000/svg">
<path d="M23.1286 9.15893C23.2851 9.11913 23.4211 9.16379 23.5205 9.25179C23.6096 9.31324 23.6837 9.40178 23.7268 9.51518C23.7712 9.63244 23.7824 9.76037 23.7598 9.88393L23.2223 12.8259L22.5071 16.7804L21.5607 22.192C21.4732 22.6917 20.9587 22.9858 20.4937 22.8018L20.1196 22.6536C20.0547 22.6278 19.9935 22.5918 19.9393 22.5473L19.1143 21.8696L17.0571 20.1893L14.4223 18.1875C14.0805 17.9275 14.0564 17.4144 14.3723 17.1223L19.2437 12.6187L12.6545 16.6688C12.3758 16.84 12.038 16.8813 11.7277 16.7812L7.63036 15.4598C7.21475 15.3257 7.20733 14.7301 7.61964 14.5857L22.9482 9.21786C23.0056 9.1868 23.0669 9.16784 23.1286 9.15893Z" fill="white"/>
<path fill-rule="evenodd" clip-rule="evenodd" d="M24.6857 0C28.7253 0 32 3.27472 32 7.31429V24.6857C32 28.5989 28.927 31.7941 25.0625 31.9902L24.6857 32H7.31429L6.9375 31.9902C3.19784 31.8004 0.199592 28.8022 0.00982143 25.0625L0 24.6857V7.31429C0 3.27472 3.27472 2.20888e-08 7.31429 0H24.6857ZM7.31429 1.82857C4.28461 1.82857 1.82857 4.28461 1.82857 7.31429V24.6857C1.82857 27.7154 4.28461 30.1714 7.31429 30.1714H24.6857C27.7154 30.1714 30.1714 27.7154 30.1714 24.6857V7.31429C30.1714 4.28461 27.7154 1.82857 24.6857 1.82857H7.31429Z" fill="white"/>
</svg>
