<svg width="32" height="32" viewBox="0 0 32 32" fill="none" xmlns="http://www.w3.org/2000/svg">
<path fill-rule="evenodd" clip-rule="evenodd" d="M21.0286 10.0571C23.0484 10.0571 24.6857 11.6945 24.6857 13.7143V18.2857C24.6857 20.3055 23.0484 21.9429 21.0286 21.9429H10.9714C8.95164 21.9429 7.31429 20.3055 7.31429 18.2857V13.7143C7.31429 11.6945 8.95164 10.0571 10.9714 10.0571H21.0286ZM14.1714 18.375L18.2857 16L14.1714 13.625V18.375Z" fill="white"/>
<path fill-rule="evenodd" clip-rule="evenodd" d="M24.6857 0C28.7253 0 32 3.27472 32 7.31429V24.6857C32 28.5989 28.927 31.7941 25.0625 31.9902L24.6857 32H7.31429L6.9375 31.9902C3.19784 31.8004 0.199592 28.8022 0.00982143 25.0625L0 24.6857V7.31429C0 3.27472 3.27472 2.20888e-08 7.31429 0H24.6857ZM7.31429 1.82857C4.28461 1.82857 1.82857 4.28461 1.82857 7.31429V24.6857C1.82857 27.7154 4.28461 30.1714 7.31429 30.1714H24.6857C27.7154 30.1714 30.1714 27.7154 30.1714 24.6857V7.31429C30.1714 4.28461 27.7154 1.82857 24.6857 1.82857H7.31429Z" fill="white"/>
</svg>
